<?xml version="1.0" encoding="UTF-8" standalone="no"?>
<!DOCTYPE svg PUBLIC "-//W3C//DTD SVG 1.1//EN"
 "http://www.w3.org/Graphics/SVG/1.1/DTD/svg11.dtd">
<!-- Generated by graphviz version 2.44.1 (20200629.0846)
 -->
<!-- Title: NSGraph Pages: 1 -->
<svg width="326pt" height="332pt"
 viewBox="0.00 0.00 326.00 332.00" xmlns="http://www.w3.org/2000/svg" xmlns:xlink="http://www.w3.org/1999/xlink">
<g id="graph0" class="graph" transform="scale(1 1) rotate(0) translate(4 328)">
<title>NSGraph</title>
<polygon fill="white" stroke="transparent" points="-4,4 -4,-328 322,-328 322,4 -4,4"/>
<!-- 0 -->
<g id="node1" class="node">
<title>0</title>
<ellipse fill="lightgrey" stroke="black" cx="158" cy="-306" rx="44.39" ry="18"/>
<text text-anchor="middle" x="158" y="-302.3" font-family="Times,serif" font-size="14.00">〈 4, 6, 9 〉</text>
</g>
<!-- 1 -->
<g id="node2" class="node">
<title>1</title>
<polygon fill="none" stroke="black" points="149.5,-252 56.5,-252 56.5,-216 149.5,-216 149.5,-252"/>
<text text-anchor="middle" x="103" y="-230.3" font-family="Times,serif" font-size="14.00">〈 4 〉 + 〈 6, 9 〉</text>
</g>
<!-- 0&#45;&gt;1 -->
<g id="edge1" class="edge">
<title>0&#45;&gt;1</title>
<path fill="none" stroke="black" d="M145.24,-288.76C138.57,-280.27 130.25,-269.68 122.76,-260.15"/>
<polygon fill="black" stroke="black" points="125.38,-257.82 116.45,-252.12 119.88,-262.15 125.38,-257.82"/>
</g>
<!-- 7 -->
<g id="node8" class="node">
<title>7</title>
<polygon fill="none" stroke="black" points="260.5,-252 167.5,-252 167.5,-216 260.5,-216 260.5,-252"/>
<text text-anchor="middle" x="214" y="-230.3" font-family="Times,serif" font-size="14.00">〈 4, 6 〉 + 〈 9 〉</text>
</g>
<!-- 0&#45;&gt;7 -->
<g id="edge7" class="edge">
<title>0&#45;&gt;7</title>
<path fill="none" stroke="black" d="M170.99,-288.76C177.79,-280.27 186.26,-269.68 193.88,-260.15"/>
<polygon fill="black" stroke="black" points="196.79,-262.12 200.3,-252.12 191.32,-257.75 196.79,-262.12"/>
</g>
<!-- 2 -->
<g id="node3" class="node">
<title>2</title>
<ellipse fill="lightgrey" stroke="black" cx="27" cy="-162" rx="27" ry="18"/>
<text text-anchor="middle" x="27" y="-158.3" font-family="Times,serif" font-size="14.00">〈 1 〉</text>
</g>
<!-- 1&#45;&gt;2 -->
<g id="edge2" class="edge">
<title>1&#45;&gt;2</title>
<path fill="none" stroke="black" d="M84.21,-215.7C73.89,-206.18 60.99,-194.3 50.05,-184.23"/>
<polygon fill="black" stroke="black" points="52.23,-181.48 42.5,-177.28 47.49,-186.63 52.23,-181.48"/>
</g>
<!-- 3 -->
<g id="node4" class="node">
<title>3</title>
<ellipse fill="lightgrey" stroke="black" cx="107" cy="-162" rx="35.19" ry="18"/>
<text text-anchor="middle" x="107" y="-158.3" font-family="Times,serif" font-size="14.00">〈 2, 3 〉</text>
</g>
<!-- 1&#45;&gt;3 -->
<g id="edge3" class="edge">
<title>1&#45;&gt;3</title>
<path fill="none" stroke="black" d="M103.99,-215.7C104.43,-207.98 104.96,-198.71 105.45,-190.11"/>
<polygon fill="black" stroke="black" points="108.95,-190.29 106.02,-180.1 101.96,-189.89 108.95,-190.29"/>
</g>
<!-- 4 -->
<g id="node5" class="node">
<title>4</title>
<polygon fill="none" stroke="black" points="146.5,-108 67.5,-108 67.5,-72 146.5,-72 146.5,-108"/>
<text text-anchor="middle" x="107" y="-86.3" font-family="Times,serif" font-size="14.00">〈 2 〉 + 〈 3 〉</text>
</g>
<!-- 3&#45;&gt;4 -->
<g id="edge4" class="edge">
<title>3&#45;&gt;4</title>
<path fill="none" stroke="black" d="M107,-143.7C107,-135.98 107,-126.71 107,-118.11"/>
<polygon fill="black" stroke="black" points="110.5,-118.1 107,-108.1 103.5,-118.1 110.5,-118.1"/>
</g>
<!-- 5 -->
<g id="node6" class="node">
<title>5</title>
<ellipse fill="lightgrey" stroke="black" cx="43" cy="-18" rx="27" ry="18"/>
<text text-anchor="middle" x="43" y="-14.3" font-family="Times,serif" font-size="14.00">〈 1 〉</text>
</g>
<!-- 4&#45;&gt;5 -->
<g id="edge5" class="edge">
<title>4&#45;&gt;5</title>
<path fill="none" stroke="black" d="M91.18,-71.7C82.77,-62.5 72.33,-51.08 63.33,-41.23"/>
<polygon fill="black" stroke="black" points="65.81,-38.76 56.48,-33.74 60.64,-43.48 65.81,-38.76"/>
</g>
<!-- 6 -->
<g id="node7" class="node">
<title>6</title>
<ellipse fill="lightgrey" stroke="black" cx="115" cy="-18" rx="27" ry="18"/>
<text text-anchor="middle" x="115" y="-14.3" font-family="Times,serif" font-size="14.00">〈 1 〉</text>
</g>
<!-- 4&#45;&gt;6 -->
<g id="edge6" class="edge">
<title>4&#45;&gt;6</title>
<path fill="none" stroke="black" d="M108.98,-71.7C109.86,-63.98 110.92,-54.71 111.9,-46.11"/>
<polygon fill="black" stroke="black" points="115.39,-46.44 113.05,-36.1 108.43,-45.64 115.39,-46.44"/>
</g>
<!-- 8 -->
<g id="node9" class="node">
<title>8</title>
<ellipse fill="lightgrey" stroke="black" cx="211" cy="-162" rx="35.19" ry="18"/>
<text text-anchor="middle" x="211" y="-158.3" font-family="Times,serif" font-size="14.00">〈 2, 3 〉</text>
</g>
<!-- 7&#45;&gt;8 -->
<g id="edge8" class="edge">
<title>7&#45;&gt;8</title>
<path fill="none" stroke="black" d="M213.26,-215.7C212.93,-207.98 212.53,-198.71 212.16,-190.11"/>
<polygon fill="black" stroke="black" points="215.66,-189.95 211.73,-180.1 208.66,-190.25 215.66,-189.95"/>
</g>
<!-- 9 -->
<g id="node13" class="node">
<title>9</title>
<ellipse fill="lightgrey" stroke="black" cx="291" cy="-162" rx="27" ry="18"/>
<text text-anchor="middle" x="291" y="-158.3" font-family="Times,serif" font-size="14.00">〈 1 〉</text>
</g>
<!-- 7&#45;&gt;9 -->
<g id="edge9" class="edge">
<title>7&#45;&gt;9</title>
<path fill="none" stroke="black" d="M233.03,-215.7C243.5,-206.18 256.57,-194.3 267.64,-184.23"/>
<polygon fill="black" stroke="black" points="270.25,-186.6 275.29,-177.28 265.54,-181.42 270.25,-186.6"/>
</g>
<!-- 10 -->
<g id="node10" class="node">
<title>10</title>
<polygon fill="none" stroke="black" points="250.5,-108 171.5,-108 171.5,-72 250.5,-72 250.5,-108"/>
<text text-anchor="middle" x="211" y="-86.3" font-family="Times,serif" font-size="14.00">〈 2 〉 + 〈 3 〉</text>
</g>
<!-- 8&#45;&gt;10 -->
<g id="edge10" class="edge">
<title>8&#45;&gt;10</title>
<path fill="none" stroke="black" d="M211,-143.7C211,-135.98 211,-126.71 211,-118.11"/>
<polygon fill="black" stroke="black" points="214.5,-118.1 211,-108.1 207.5,-118.1 214.5,-118.1"/>
</g>
<!-- 11 -->
<g id="node11" class="node">
<title>11</title>
<ellipse fill="lightgrey" stroke="black" cx="203" cy="-18" rx="27" ry="18"/>
<text text-anchor="middle" x="203" y="-14.3" font-family="Times,serif" font-size="14.00">〈 1 〉</text>
</g>
<!-- 10&#45;&gt;11 -->
<g id="edge11" class="edge">
<title>10&#45;&gt;11</title>
<path fill="none" stroke="black" d="M209.02,-71.7C208.14,-63.98 207.08,-54.71 206.1,-46.11"/>
<polygon fill="black" stroke="black" points="209.57,-45.64 204.95,-36.1 202.61,-46.44 209.57,-45.64"/>
</g>
<!-- 12 -->
<g id="node12" class="node">
<title>12</title>
<ellipse fill="lightgrey" stroke="black" cx="275" cy="-18" rx="27" ry="18"/>
<text text-anchor="middle" x="275" y="-14.3" font-family="Times,serif" font-size="14.00">〈 1 〉</text>
</g>
<!-- 10&#45;&gt;12 -->
<g id="edge12" class="edge">
<title>10&#45;&gt;12</title>
<path fill="none" stroke="black" d="M226.82,-71.7C235.23,-62.5 245.67,-51.08 254.67,-41.23"/>
<polygon fill="black" stroke="black" points="257.36,-43.48 261.52,-33.74 252.19,-38.76 257.36,-43.48"/>
</g>
</g>
</svg>
