<?xml version="1.0" encoding="UTF-8" standalone="no"?>
<!DOCTYPE svg PUBLIC "-//W3C//DTD SVG 1.1//EN"
 "http://www.w3.org/Graphics/SVG/1.1/DTD/svg11.dtd">
<!-- Generated by graphviz version 2.44.1 (20200629.0846)
 -->
<!-- Title: NSGraph Pages: 1 -->
<svg width="150pt" height="305pt"
 viewBox="0.00 0.00 150.49 305.00" xmlns="http://www.w3.org/2000/svg" xmlns:xlink="http://www.w3.org/1999/xlink">
<g id="graph0" class="graph" transform="scale(1 1) rotate(0) translate(4 301)">
<title>NSGraph</title>
<polygon fill="white" stroke="transparent" points="-4,4 -4,-301 146.49,-301 146.49,4 -4,4"/>
<!-- 1 -->
<g id="node1" class="node">
<title>1</title>
<ellipse fill="none" stroke="black" cx="100.25" cy="-279" rx="42.49" ry="18"/>
<text text-anchor="middle" x="100.25" y="-275.3" font-family="Times,serif" font-size="14.00"> (7, 0, 0)</text>
</g>
<!-- 2 -->
<g id="node2" class="node">
<title>2</title>
<ellipse fill="none" stroke="black" cx="42.25" cy="-192" rx="42.49" ry="18"/>
<text text-anchor="middle" x="42.25" y="-188.3" font-family="Times,serif" font-size="14.00"> (2, 3, 0)</text>
</g>
<!-- 1&#45;&#45;2 -->
<g id="edge4" class="edge">
<title>1&#45;&#45;2</title>
<path fill="none" stroke="black" d="M89.06,-261.61C78.86,-246.66 63.85,-224.66 53.59,-209.63"/>
<text text-anchor="middle" x="78.75" y="-231.8" font-family="Times,serif" font-size="14.00">5</text>
</g>
<!-- 3 -->
<g id="node3" class="node">
<title>3</title>
<ellipse fill="none" stroke="black" cx="81.25" cy="-105" rx="42.49" ry="18"/>
<text text-anchor="middle" x="81.25" y="-101.3" font-family="Times,serif" font-size="14.00"> (3, 1, 1)</text>
</g>
<!-- 1&#45;&#45;3 -->
<g id="edge2" class="edge">
<title>1&#45;&#45;3</title>
<path fill="none" stroke="black" d="M99.65,-260.65C98.8,-239.96 96.94,-204.36 93.25,-174 91.12,-156.51 87.48,-136.68 84.76,-122.97"/>
<text text-anchor="middle" x="100.75" y="-188.3" font-family="Times,serif" font-size="14.00">4</text>
</g>
<!-- 2&#45;&#45;3 -->
<g id="edge1" class="edge">
<title>2&#45;&#45;3</title>
<path fill="none" stroke="black" d="M49.95,-174.21C56.79,-159.31 66.72,-137.65 73.56,-122.76"/>
<text text-anchor="middle" x="67.75" y="-144.8" font-family="Times,serif" font-size="14.00">2</text>
</g>
<!-- 4 -->
<g id="node4" class="node">
<title>4</title>
<ellipse fill="none" stroke="black" cx="81.25" cy="-18" rx="42.49" ry="18"/>
<text text-anchor="middle" x="81.25" y="-14.3" font-family="Times,serif" font-size="14.00"> (0, 0, 3)</text>
</g>
<!-- 3&#45;&#45;4 -->
<g id="edge3" class="edge">
<title>3&#45;&#45;4</title>
<path fill="none" stroke="black" d="M81.25,-86.8C81.25,-72.05 81.25,-50.92 81.25,-36.18"/>
<text text-anchor="middle" x="84.75" y="-57.8" font-family="Times,serif" font-size="14.00">4</text>
</g>
</g>
</svg>
