<?xml version="1.0" encoding="UTF-8" standalone="no"?>
<!DOCTYPE svg PUBLIC "-//W3C//DTD SVG 1.1//EN"
 "http://www.w3.org/Graphics/SVG/1.1/DTD/svg11.dtd">
<!-- Generated by graphviz version 2.40.1 (20161225.0304)
 -->
<!-- Title: NSGraph Pages: 1 -->
<svg width="206pt" height="188pt"
 viewBox="0.00 0.00 206.00 188.00" xmlns="http://www.w3.org/2000/svg" xmlns:xlink="http://www.w3.org/1999/xlink">
<g id="graph0" class="graph" transform="scale(1 1) rotate(0) translate(4 184)">
<title>NSGraph</title>
<polygon fill="#ffffff" stroke="transparent" points="-4,4 -4,-184 202,-184 202,4 -4,4"/>
<!-- 1 -->
<g id="node1" class="node">
<title>1</title>
<ellipse fill="none" stroke="#000000" cx="99" cy="-18" rx="27" ry="18"/>
<text text-anchor="middle" x="99" y="-14.3" font-family="Times,serif" font-size="14.00" fill="#000000">0</text>
</g>
<!-- 2 -->
<g id="node2" class="node">
<title>2</title>
<ellipse fill="none" stroke="#000000" cx="27" cy="-90" rx="27" ry="18"/>
<text text-anchor="middle" x="27" y="-86.3" font-family="Times,serif" font-size="14.00" fill="#000000">11</text>
</g>
<!-- 2&#45;&gt;1 -->
<g id="edge1" class="edge">
<title>2&#45;&gt;1</title>
<path fill="none" stroke="#000000" d="M49.5883,-67.4117C60.7123,-56.2877 73.8297,-43.1703 83.7527,-33.2473"/>
<polygon fill="#000000" stroke="#000000" points="46.8656,-65.1847 42.2693,-74.7307 51.8153,-70.1344 46.8656,-65.1847"/>
</g>
<!-- 3 -->
<g id="node3" class="node">
<title>3</title>
<ellipse fill="none" stroke="#000000" cx="99" cy="-90" rx="27" ry="18"/>
<text text-anchor="middle" x="99" y="-86.3" font-family="Times,serif" font-size="14.00" fill="#000000">13</text>
</g>
<!-- 3&#45;&gt;1 -->
<g id="edge2" class="edge">
<title>3&#45;&gt;1</title>
<path fill="none" stroke="#000000" d="M99,-61.5726C99,-53.1084 99,-44.0593 99,-36.4133"/>
<polygon fill="#000000" stroke="#000000" points="95.5001,-61.8313 99,-71.8314 102.5001,-61.8314 95.5001,-61.8313"/>
</g>
<!-- 4 -->
<g id="node4" class="node">
<title>4</title>
<ellipse fill="none" stroke="#000000" cx="171" cy="-90" rx="27" ry="18"/>
<text text-anchor="middle" x="171" y="-86.3" font-family="Times,serif" font-size="14.00" fill="#000000">21</text>
</g>
<!-- 4&#45;&gt;1 -->
<g id="edge3" class="edge">
<title>4&#45;&gt;1</title>
<path fill="none" stroke="#000000" d="M148.4117,-67.4117C137.2877,-56.2877 124.1703,-43.1703 114.2473,-33.2473"/>
<polygon fill="#000000" stroke="#000000" points="146.1847,-70.1344 155.7307,-74.7307 151.1344,-65.1847 146.1847,-70.1344"/>
</g>
<!-- 5 -->
<g id="node5" class="node">
<title>5</title>
<ellipse fill="none" stroke="#000000" cx="27" cy="-162" rx="27" ry="18"/>
<text text-anchor="middle" x="27" y="-158.3" font-family="Times,serif" font-size="14.00" fill="#000000">22</text>
</g>
<!-- 5&#45;&gt;2 -->
<g id="edge4" class="edge">
<title>5&#45;&gt;2</title>
<path fill="none" stroke="#000000" d="M27,-133.5726C27,-125.1084 27,-116.0593 27,-108.4133"/>
<polygon fill="#000000" stroke="#000000" points="23.5001,-133.8313 27,-143.8314 30.5001,-133.8314 23.5001,-133.8313"/>
</g>
<!-- 6 -->
<g id="node6" class="node">
<title>6</title>
<ellipse fill="none" stroke="#000000" cx="99" cy="-162" rx="27" ry="18"/>
<text text-anchor="middle" x="99" y="-158.3" font-family="Times,serif" font-size="14.00" fill="#000000">26</text>
</g>
<!-- 6&#45;&gt;3 -->
<g id="edge5" class="edge">
<title>6&#45;&gt;3</title>
<path fill="none" stroke="#000000" d="M99,-133.5726C99,-125.1084 99,-116.0593 99,-108.4133"/>
<polygon fill="#000000" stroke="#000000" points="95.5001,-133.8313 99,-143.8314 102.5001,-133.8314 95.5001,-133.8313"/>
</g>
</g>
</svg>
