<?xml version="1.0" encoding="UTF-8" standalone="no"?>
<!DOCTYPE svg PUBLIC "-//W3C//DTD SVG 1.1//EN"
 "http://www.w3.org/Graphics/SVG/1.1/DTD/svg11.dtd">
<!-- Generated by graphviz version 2.44.1 (20200629.0846)
 -->
<!-- Title: NSGraph Pages: 1 -->
<svg width="466pt" height="566pt"
 viewBox="0.00 0.00 466.00 566.00" xmlns="http://www.w3.org/2000/svg" xmlns:xlink="http://www.w3.org/1999/xlink">
<g id="graph0" class="graph" transform="scale(1 1) rotate(0) translate(4 562)">
<title>NSGraph</title>
<polygon fill="white" stroke="transparent" points="-4,4 -4,-562 462,-562 462,4 -4,4"/>
<!-- 1 -->
<g id="node1" class="node">
<title>1</title>
<ellipse fill="none" stroke="black" cx="349" cy="-540" rx="55.79" ry="18"/>
<text text-anchor="middle" x="349" y="-536.3" font-family="Times,serif" font-size="14.00"> (10, 0, 0, 0)</text>
</g>
<!-- 2 -->
<g id="node2" class="node">
<title>2</title>
<ellipse fill="none" stroke="black" cx="236" cy="-453" rx="51.19" ry="18"/>
<text text-anchor="middle" x="236" y="-449.3" font-family="Times,serif" font-size="14.00"> (1, 4, 2, 0)</text>
</g>
<!-- 1&#45;&#45;2 -->
<g id="edge20" class="edge">
<title>1&#45;&#45;2</title>
<path fill="none" stroke="black" d="M328.01,-523.21C307.71,-507.94 277.14,-484.94 256.88,-469.7"/>
<text text-anchor="middle" x="302.5" y="-492.8" font-family="Times,serif" font-size="14.00">9</text>
</g>
<!-- 3 -->
<g id="node3" class="node">
<title>3</title>
<ellipse fill="none" stroke="black" cx="276" cy="-366" rx="51.19" ry="18"/>
<text text-anchor="middle" x="276" y="-362.3" font-family="Times,serif" font-size="14.00"> (3, 1, 3, 0)</text>
</g>
<!-- 1&#45;&#45;3 -->
<g id="edge18" class="edge">
<title>1&#45;&#45;3</title>
<path fill="none" stroke="black" d="M341.73,-521.88C327.74,-488.91 297.21,-416.97 283.24,-384.05"/>
<text text-anchor="middle" x="322.5" y="-449.3" font-family="Times,serif" font-size="14.00">7</text>
</g>
<!-- 4 -->
<g id="node4" class="node">
<title>4</title>
<ellipse fill="none" stroke="black" cx="163" cy="-279" rx="51.19" ry="18"/>
<text text-anchor="middle" x="163" y="-275.3" font-family="Times,serif" font-size="14.00"> (4, 3, 0, 1)</text>
</g>
<!-- 1&#45;&#45;4 -->
<g id="edge15" class="edge">
<title>1&#45;&#45;4</title>
<path fill="none" stroke="black" d="M300.78,-530.79C262.54,-522 210.04,-504.51 176,-471 127.71,-423.46 131.14,-396.48 118,-330 116.71,-323.46 115.07,-320.99 118,-315 122,-306.82 128.94,-300 136.18,-294.62"/>
<text text-anchor="middle" x="140.5" y="-405.8" font-family="Times,serif" font-size="14.00">6</text>
</g>
<!-- 5 -->
<g id="node5" class="node">
<title>5</title>
<ellipse fill="none" stroke="black" cx="111" cy="-192" rx="51.19" ry="18"/>
<text text-anchor="middle" x="111" y="-188.3" font-family="Times,serif" font-size="14.00"> (6, 0, 1, 1)</text>
</g>
<!-- 1&#45;&#45;5 -->
<g id="edge6" class="edge">
<title>1&#45;&#45;5</title>
<path fill="none" stroke="red" d="M295.18,-534.97C208.11,-526.95 46,-505.15 46,-454 46,-454 46,-454 46,-278 46,-249.02 70.14,-223.8 88.99,-208.51"/>
<text text-anchor="middle" x="49.5" y="-362.3" font-family="Times,serif" font-size="14.00">4</text>
</g>
<!-- 6 -->
<g id="node6" class="node">
<title>6</title>
<ellipse fill="none" stroke="black" cx="364" cy="-105" rx="51.19" ry="18"/>
<text text-anchor="middle" x="364" y="-101.3" font-family="Times,serif" font-size="14.00"> (0, 3, 1, 2)</text>
</g>
<!-- 1&#45;&#45;6 -->
<g id="edge21" class="edge">
<title>1&#45;&#45;6</title>
<path fill="none" stroke="black" d="M367.96,-522.84C384.21,-507.1 405,-481.57 405,-454 405,-454 405,-454 405,-191 405,-165.11 389.38,-138.8 377.42,-122.45"/>
<text text-anchor="middle" x="412" y="-318.8" font-family="Times,serif" font-size="14.00">10</text>
</g>
<!-- 7 -->
<g id="node7" class="node">
<title>7</title>
<ellipse fill="none" stroke="black" cx="237" cy="-18" rx="51.19" ry="18"/>
<text text-anchor="middle" x="237" y="-14.3" font-family="Times,serif" font-size="14.00"> (2, 0, 2, 2)</text>
</g>
<!-- 1&#45;&#45;7 -->
<g id="edge19" class="edge">
<title>1&#45;&#45;7</title>
<path fill="none" stroke="black" d="M384.96,-526.05C414.33,-512.89 451,-489.38 451,-454 451,-454 451,-454 451,-104 451,-67.77 343.73,-40.23 281.08,-27.24"/>
<text text-anchor="middle" x="454.5" y="-275.3" font-family="Times,serif" font-size="14.00">8</text>
</g>
<!-- 2&#45;&#45;3 -->
<g id="edge1" class="edge">
<title>2&#45;&#45;3</title>
<path fill="none" stroke="red" d="M243.9,-435.21C250.87,-420.4 260.97,-398.93 267.98,-384.05"/>
<text text-anchor="middle" x="262.5" y="-405.8" font-family="Times,serif" font-size="14.00">3</text>
</g>
<!-- 2&#45;&#45;4 -->
<g id="edge7" class="edge">
<title>2&#45;&#45;4</title>
<path fill="none" stroke="red" d="M228.73,-434.88C214.74,-401.91 184.21,-329.97 170.24,-297.05"/>
<text text-anchor="middle" x="210.5" y="-362.3" font-family="Times,serif" font-size="14.00">4</text>
</g>
<!-- 2&#45;&#45;5 -->
<g id="edge16" class="edge">
<title>2&#45;&#45;5</title>
<path fill="none" stroke="black" d="M215.48,-436.43C184.13,-411.2 125.59,-358.02 103,-297 92.25,-267.96 99.43,-231.31 105.38,-210.18"/>
<text text-anchor="middle" x="122.5" y="-318.8" font-family="Times,serif" font-size="14.00">6</text>
</g>
<!-- 2&#45;&#45;6 -->
<g id="edge2" class="edge">
<title>2&#45;&#45;6</title>
<path fill="none" stroke="red" d="M268.76,-438.8C291.65,-427.74 320.75,-409.62 336,-384 387.37,-297.72 373.97,-169.21 366.96,-123.17"/>
<text text-anchor="middle" x="374.5" y="-275.3" font-family="Times,serif" font-size="14.00">3</text>
</g>
<!-- 2&#45;&#45;7 -->
<g id="edge8" class="edge">
<title>2&#45;&#45;7</title>
<path fill="none" stroke="black" d="M186.2,-448.07C138.91,-441.83 68.61,-425.71 24,-384 2.87,-364.24 0,-352.43 0,-323.5 0,-323.5 0,-323.5 0,-104 0,-63.89 121.77,-37.61 190.74,-25.94"/>
<text text-anchor="middle" x="3.5" y="-231.8" font-family="Times,serif" font-size="14.00">4</text>
</g>
<!-- 3&#45;&#45;4 -->
<g id="edge9" class="edge">
<title>3&#45;&#45;4</title>
<path fill="none" stroke="black" d="M254.92,-349.36C246.8,-343.32 237.46,-336.35 229,-330 213.71,-318.52 196.5,-305.47 183.48,-295.58"/>
<text text-anchor="middle" x="232.5" y="-318.8" font-family="Times,serif" font-size="14.00">4</text>
</g>
<!-- 3&#45;&#45;5 -->
<g id="edge10" class="edge">
<title>3&#45;&#45;5</title>
<path fill="none" stroke="black" d="M270.55,-347.78C262.85,-325.6 246.99,-286.84 223,-261 200.33,-236.58 166.93,-217.84 142.5,-206.27"/>
<text text-anchor="middle" x="251.5" y="-275.3" font-family="Times,serif" font-size="14.00">4</text>
</g>
<!-- 3&#45;&#45;6 -->
<g id="edge13" class="edge">
<title>3&#45;&#45;6</title>
<path fill="none" stroke="black" d="M288.31,-348.51C292.13,-342.85 296.09,-336.35 299,-330 335.41,-250.59 327.9,-224.68 353,-141 354.76,-135.14 356.74,-128.76 358.54,-123.06"/>
<text text-anchor="middle" x="335.5" y="-231.8" font-family="Times,serif" font-size="14.00">5</text>
</g>
<!-- 3&#45;&#45;7 -->
<g id="edge3" class="edge">
<title>3&#45;&#45;7</title>
<path fill="none" stroke="red" d="M278.9,-347.8C281.53,-330.67 285,-303.59 285,-280 285,-280 285,-280 285,-104 285,-77.39 266.95,-51.45 252.98,-35.37"/>
<text text-anchor="middle" x="288.5" y="-188.3" font-family="Times,serif" font-size="14.00">3</text>
</g>
<!-- 4&#45;&#45;5 -->
<g id="edge4" class="edge">
<title>4&#45;&#45;5</title>
<path fill="none" stroke="red" d="M152.73,-261.21C143.61,-246.31 130.36,-224.65 121.25,-209.76"/>
<text text-anchor="middle" x="144.5" y="-231.8" font-family="Times,serif" font-size="14.00">3</text>
</g>
<!-- 4&#45;&#45;6 -->
<g id="edge11" class="edge">
<title>4&#45;&#45;6</title>
<path fill="none" stroke="black" d="M183.39,-262.09C190.23,-256.37 197.71,-249.68 204,-243 230.32,-215.03 227.73,-199.99 256,-174 280.14,-151.81 312.46,-132.55 335.44,-120.25"/>
<text text-anchor="middle" x="259.5" y="-188.3" font-family="Times,serif" font-size="14.00">4</text>
</g>
<!-- 4&#45;&#45;7 -->
<g id="edge14" class="edge">
<title>4&#45;&#45;7</title>
<path fill="none" stroke="black" d="M165.99,-260.95C170.74,-234.86 180.72,-183.58 193,-141 203.98,-102.92 220.66,-59.54 230.01,-36.14"/>
<text text-anchor="middle" x="196.5" y="-144.8" font-family="Times,serif" font-size="14.00">5</text>
</g>
<!-- 5&#45;&#45;6 -->
<g id="edge17" class="edge">
<title>5&#45;&#45;6</title>
<path fill="none" stroke="black" d="M145.43,-178.59C161.64,-172.38 181.09,-164.41 198,-156 209.6,-150.23 211.02,-145.95 223,-141 253.89,-128.24 290.57,-119.31 318.78,-113.67"/>
<text text-anchor="middle" x="226.5" y="-144.8" font-family="Times,serif" font-size="14.00">6</text>
</g>
<!-- 5&#45;&#45;7 -->
<g id="edge12" class="edge">
<title>5&#45;&#45;7</title>
<path fill="none" stroke="black" d="M115.46,-173.94C123.5,-145.98 142.75,-89.95 176,-54 184.21,-45.13 195.19,-37.88 205.57,-32.33"/>
<text text-anchor="middle" x="155.5" y="-101.3" font-family="Times,serif" font-size="14.00">4</text>
</g>
<!-- 6&#45;&#45;7 -->
<g id="edge5" class="edge">
<title>6&#45;&#45;7</title>
<path fill="none" stroke="black" d="M344.9,-88.16C332.23,-77.93 315.03,-64.61 299,-54 287.97,-46.7 275.33,-39.39 264.35,-33.35"/>
<text text-anchor="middle" x="322.5" y="-57.8" font-family="Times,serif" font-size="14.00">3</text>
</g>
</g>
</svg>
