<?xml version="1.0" encoding="UTF-8" standalone="no"?>
<!DOCTYPE svg PUBLIC "-//W3C//DTD SVG 1.1//EN"
 "http://www.w3.org/Graphics/SVG/1.1/DTD/svg11.dtd">
<!-- Generated by graphviz version 2.44.1 (20200629.0846)
 -->
<!-- Title: NSGraph Pages: 1 -->
<svg width="416pt" height="566pt"
 viewBox="0.00 0.00 416.00 566.00" xmlns="http://www.w3.org/2000/svg" xmlns:xlink="http://www.w3.org/1999/xlink">
<g id="graph0" class="graph" transform="scale(1 1) rotate(0) translate(4 562)">
<title>NSGraph</title>
<polygon fill="white" stroke="transparent" points="-4,4 -4,-562 412,-562 412,4 -4,4"/>
<!-- 1 -->
<g id="node1" class="node">
<title>1</title>
<ellipse fill="none" stroke="black" cx="197" cy="-540" rx="55.79" ry="18"/>
<text text-anchor="middle" x="197" y="-536.3" font-family="Times,serif" font-size="14.00"> (10, 0, 0, 0)</text>
</g>
<!-- 2 -->
<g id="node2" class="node">
<title>2</title>
<ellipse fill="none" stroke="black" cx="197" cy="-453" rx="51.19" ry="18"/>
<text text-anchor="middle" x="197" y="-449.3" font-family="Times,serif" font-size="14.00"> (1, 4, 2, 0)</text>
</g>
<!-- 1&#45;&#45;2 -->
<g id="edge20" class="edge">
<title>1&#45;&#45;2</title>
<path fill="none" stroke="black" d="M197,-521.8C197,-507.05 197,-485.92 197,-471.18"/>
<text text-anchor="middle" x="200.5" y="-492.8" font-family="Times,serif" font-size="14.00">9</text>
</g>
<!-- 3 -->
<g id="node3" class="node">
<title>3</title>
<ellipse fill="none" stroke="black" cx="118" cy="-366" rx="51.19" ry="18"/>
<text text-anchor="middle" x="118" y="-362.3" font-family="Times,serif" font-size="14.00"> (3, 1, 3, 0)</text>
</g>
<!-- 1&#45;&#45;3 -->
<g id="edge18" class="edge">
<title>1&#45;&#45;3</title>
<path fill="none" stroke="black" d="M175.02,-523.18C159.66,-510.83 140.16,-492.23 130,-471 116.5,-442.8 115.73,-405.55 116.67,-384.14"/>
<text text-anchor="middle" x="133.5" y="-449.3" font-family="Times,serif" font-size="14.00">7</text>
</g>
<!-- 4 -->
<g id="node4" class="node">
<title>4</title>
<ellipse fill="none" stroke="black" cx="241" cy="-279" rx="51.19" ry="18"/>
<text text-anchor="middle" x="241" y="-275.3" font-family="Times,serif" font-size="14.00"> (4, 3, 0, 1)</text>
</g>
<!-- 1&#45;&#45;4 -->
<g id="edge15" class="edge">
<title>1&#45;&#45;4</title>
<path fill="none" stroke="black" d="M217.39,-523C231.5,-510.55 249.09,-491.91 257,-471 279.95,-410.31 258.65,-331.25 247.2,-297.03"/>
<text text-anchor="middle" x="270.5" y="-405.8" font-family="Times,serif" font-size="14.00">6</text>
</g>
<!-- 5 -->
<g id="node5" class="node">
<title>5</title>
<ellipse fill="none" stroke="black" cx="331" cy="-192" rx="51.19" ry="18"/>
<text text-anchor="middle" x="331" y="-188.3" font-family="Times,serif" font-size="14.00"> (6, 0, 1, 1)</text>
</g>
<!-- 1&#45;&#45;5 -->
<g id="edge6" class="edge">
<title>1&#45;&#45;5</title>
<path fill="none" stroke="black" d="M252.74,-538.62C313.14,-534.92 401,-518.46 401,-454 401,-454 401,-454 401,-278 401,-248.18 375.01,-223.14 354.7,-208.13"/>
<text text-anchor="middle" x="404.5" y="-362.3" font-family="Times,serif" font-size="14.00">4</text>
</g>
<!-- 7 -->
<g id="node7" class="node">
<title>7</title>
<ellipse fill="none" stroke="black" cx="123" cy="-18" rx="51.19" ry="18"/>
<text text-anchor="middle" x="123" y="-14.3" font-family="Times,serif" font-size="14.00"> (2, 0, 2, 2)</text>
</g>
<!-- 1&#45;&#45;7 -->
<g id="edge19" class="edge">
<title>1&#45;&#45;7</title>
<path fill="none" stroke="black" d="M141.34,-537.82C83.08,-533.27 0,-515.93 0,-454 0,-454 0,-454 0,-104 0,-63.25 46.26,-40.51 82.04,-29.02"/>
<text text-anchor="middle" x="3.5" y="-275.3" font-family="Times,serif" font-size="14.00">8</text>
</g>
<!-- 2&#45;&#45;3 -->
<g id="edge1" class="edge">
<title>2&#45;&#45;3</title>
<path fill="none" stroke="black" d="M181.77,-435.61C167.78,-420.56 147.16,-398.37 133.19,-383.34"/>
<text text-anchor="middle" x="165.5" y="-405.8" font-family="Times,serif" font-size="14.00">3</text>
</g>
<!-- 2&#45;&#45;4 -->
<g id="edge7" class="edge">
<title>2&#45;&#45;4</title>
<path fill="none" stroke="black" d="M204.41,-435.11C206.73,-429.43 209.16,-423.01 211,-417 224.01,-374.64 233.69,-323.27 238.19,-297.11"/>
<text text-anchor="middle" x="231.5" y="-362.3" font-family="Times,serif" font-size="14.00">4</text>
</g>
<!-- 2&#45;&#45;5 -->
<g id="edge16" class="edge">
<title>2&#45;&#45;5</title>
<path fill="none" stroke="black" d="M216.11,-436.11C245.83,-410.26 302.65,-355.99 331,-297 344.42,-269.07 345.3,-258.69 341,-228 340.16,-221.99 338.54,-215.57 336.85,-209.89"/>
<text text-anchor="middle" x="323.5" y="-318.8" font-family="Times,serif" font-size="14.00">6</text>
</g>
<!-- 6 -->
<g id="node6" class="node">
<title>6</title>
<ellipse fill="none" stroke="black" cx="164" cy="-105" rx="51.19" ry="18"/>
<text text-anchor="middle" x="164" y="-101.3" font-family="Times,serif" font-size="14.00"> (0, 3, 1, 2)</text>
</g>
<!-- 2&#45;&#45;6 -->
<g id="edge2" class="edge">
<title>2&#45;&#45;6</title>
<path fill="none" stroke="black" d="M193.91,-434.86C188.9,-406.36 179.04,-347.35 174,-297 167.6,-233.07 165.16,-156.66 164.35,-123.16"/>
<text text-anchor="middle" x="177.5" y="-275.3" font-family="Times,serif" font-size="14.00">3</text>
</g>
<!-- 2&#45;&#45;7 -->
<g id="edge8" class="edge">
<title>2&#45;&#45;7</title>
<path fill="none" stroke="black" d="M160.12,-440.36C113.15,-424.39 38,-394.54 38,-367 38,-367 38,-367 38,-104 38,-71.65 69.16,-47.32 93.75,-33.15"/>
<text text-anchor="middle" x="41.5" y="-231.8" font-family="Times,serif" font-size="14.00">4</text>
</g>
<!-- 3&#45;&#45;4 -->
<g id="edge9" class="edge">
<title>3&#45;&#45;4</title>
<path fill="none" stroke="black" d="M140.27,-349.61C162.57,-334.2 196.66,-310.64 218.89,-295.28"/>
<text text-anchor="middle" x="189.5" y="-318.8" font-family="Times,serif" font-size="14.00">4</text>
</g>
<!-- 3&#45;&#45;5 -->
<g id="edge10" class="edge">
<title>3&#45;&#45;5</title>
<path fill="none" stroke="black" d="M165.91,-359.3C207.25,-351.88 265.73,-335.02 301,-297 323.49,-272.75 329.24,-232.69 330.63,-210.02"/>
<text text-anchor="middle" x="323.5" y="-275.3" font-family="Times,serif" font-size="14.00">4</text>
</g>
<!-- 3&#45;&#45;6 -->
<g id="edge13" class="edge">
<title>3&#45;&#45;6</title>
<path fill="none" stroke="black" d="M119.05,-347.86C121.67,-309.99 129.81,-216.52 150,-141 151.62,-134.93 154,-128.49 156.33,-122.81"/>
<text text-anchor="middle" x="134.5" y="-231.8" font-family="Times,serif" font-size="14.00">5</text>
</g>
<!-- 3&#45;&#45;7 -->
<g id="edge3" class="edge">
<title>3&#45;&#45;7</title>
<path fill="none" stroke="black" d="M114.95,-347.98C107.62,-304.37 90.55,-185.15 104,-87 106.43,-69.27 112.27,-49.65 116.84,-36.05"/>
<text text-anchor="middle" x="102.5" y="-188.3" font-family="Times,serif" font-size="14.00">3</text>
</g>
<!-- 4&#45;&#45;5 -->
<g id="edge4" class="edge">
<title>4&#45;&#45;5</title>
<path fill="none" stroke="black" d="M258.35,-261.61C274.39,-246.46 298.08,-224.09 314.01,-209.05"/>
<text text-anchor="middle" x="294.5" y="-231.8" font-family="Times,serif" font-size="14.00">3</text>
</g>
<!-- 4&#45;&#45;6 -->
<g id="edge11" class="edge">
<title>4&#45;&#45;6</title>
<path fill="none" stroke="black" d="M233.34,-260.88C218.58,-227.91 186.37,-155.97 171.63,-123.05"/>
<text text-anchor="middle" x="213.5" y="-188.3" font-family="Times,serif" font-size="14.00">4</text>
</g>
<!-- 4&#45;&#45;7 -->
<g id="edge14" class="edge">
<title>4&#45;&#45;7</title>
<path fill="none" stroke="black" d="M244.16,-260.91C249.77,-225.54 257.88,-142.96 224,-87 208.34,-61.14 178.66,-42.95 155.51,-31.94"/>
<text text-anchor="middle" x="249.5" y="-144.8" font-family="Times,serif" font-size="14.00">5</text>
</g>
<!-- 5&#45;&#45;6 -->
<g id="edge17" class="edge">
<title>5&#45;&#45;6</title>
<path fill="none" stroke="black" d="M289.78,-181.21C269.53,-175.46 245.21,-167.11 225,-156 208.44,-146.89 192.01,-133.08 180.38,-122.27"/>
<text text-anchor="middle" x="228.5" y="-144.8" font-family="Times,serif" font-size="14.00">6</text>
</g>
<!-- 5&#45;&#45;7 -->
<g id="edge12" class="edge">
<title>5&#45;&#45;7</title>
<path fill="none" stroke="black" d="M327.8,-173.76C321.43,-144.5 304.36,-85.27 266,-54 240.15,-32.93 203.49,-24.24 173.77,-20.79"/>
<text text-anchor="middle" x="315.5" y="-101.3" font-family="Times,serif" font-size="14.00">4</text>
</g>
<!-- 6&#45;&#45;7 -->
<g id="edge5" class="edge">
<title>6&#45;&#45;7</title>
<path fill="none" stroke="black" d="M155.9,-87.21C148.76,-72.4 138.4,-50.93 131.22,-36.05"/>
<text text-anchor="middle" x="148.5" y="-57.8" font-family="Times,serif" font-size="14.00">3</text>
</g>
</g>
</svg>
