<?xml version="1.0" encoding="UTF-8" standalone="no"?>
<!DOCTYPE svg PUBLIC "-//W3C//DTD SVG 1.1//EN"
 "http://www.w3.org/Graphics/SVG/1.1/DTD/svg11.dtd">
<!-- Generated by graphviz version 2.40.1 (20161225.0304)
 -->
<!-- Title: NSGraph Pages: 1 -->
<svg width="184pt" height="332pt"
 viewBox="0.00 0.00 184.29 332.00" xmlns="http://www.w3.org/2000/svg" xmlns:xlink="http://www.w3.org/1999/xlink">
<g id="graph0" class="graph" transform="scale(1 1) rotate(0) translate(4 328)">
<title>NSGraph</title>
<polygon fill="#ffffff" stroke="transparent" points="-4,4 -4,-328 180.293,-328 180.293,4 -4,4"/>
<!-- 1 -->
<g id="node1" class="node">
<title>1</title>
<ellipse fill="#d3d3d3" stroke="#000000" cx="83.0969" cy="-306" rx="27" ry="18"/>
<text text-anchor="middle" x="83.0969" y="-302.3" font-family="Times,serif" font-size="14.00" fill="#000000">〈 1 〉</text>
</g>
<!-- 2 -->
<g id="node2" class="node">
<title>2</title>
<ellipse fill="#d3d3d3" stroke="#000000" cx="83.0969" cy="-234" rx="35.194" ry="18"/>
<text text-anchor="middle" x="83.0969" y="-230.3" font-family="Times,serif" font-size="14.00" fill="#000000">〈 2, 3 〉</text>
</g>
<!-- 1&#45;&gt;2 -->
<g id="edge1" class="edge">
<title>1&#45;&gt;2</title>
<path fill="none" stroke="#000000" d="M83.0969,-277.5726C83.0969,-269.1084 83.0969,-260.0593 83.0969,-252.4133"/>
<polygon fill="#000000" stroke="#000000" points="79.597,-277.8313 83.0969,-287.8314 86.597,-277.8314 79.597,-277.8313"/>
</g>
<!-- 3 -->
<g id="node3" class="node">
<title>3</title>
<ellipse fill="#d3d3d3" stroke="#000000" cx="35.0969" cy="-162" rx="35.194" ry="18"/>
<text text-anchor="middle" x="35.0969" y="-158.3" font-family="Times,serif" font-size="14.00" fill="#000000">〈 2, 5 〉</text>
</g>
<!-- 2&#45;&gt;3 -->
<g id="edge2" class="edge">
<title>2&#45;&gt;3</title>
<path fill="none" stroke="#000000" d="M66.0956,-208.4981C59.6815,-198.8768 52.5364,-188.1593 46.724,-179.4407"/>
<polygon fill="#000000" stroke="#000000" points="63.2623,-210.558 71.7216,-216.937 69.0867,-206.675 63.2623,-210.558"/>
</g>
<!-- 4 -->
<g id="node4" class="node">
<title>4</title>
<ellipse fill="#d3d3d3" stroke="#000000" cx="132.0969" cy="-162" rx="44.393" ry="18"/>
<text text-anchor="middle" x="132.0969" y="-158.3" font-family="Times,serif" font-size="14.00" fill="#000000">〈 3, 4, 5 〉</text>
</g>
<!-- 2&#45;&gt;4 -->
<g id="edge3" class="edge">
<title>2&#45;&gt;4</title>
<path fill="none" stroke="#000000" d="M100.4523,-208.4981C107.0001,-198.8768 114.2941,-188.1593 120.2275,-179.4407"/>
<polygon fill="#000000" stroke="#000000" points="97.442,-206.7007 94.7092,-216.937 103.229,-210.6391 97.442,-206.7007"/>
</g>
<!-- 5 -->
<g id="node5" class="node">
<title>5</title>
<ellipse fill="none" stroke="#000000" cx="83.0969" cy="-90" rx="53.8905" ry="18"/>
<text text-anchor="middle" x="83.0969" y="-86.3" font-family="Times,serif" font-size="14.00" fill="#000000">〈 4, 5, 6, 7 〉</text>
</g>
<!-- 3&#45;&gt;5 -->
<g id="edge4" class="edge">
<title>3&#45;&gt;5</title>
<path fill="none" stroke="#000000" d="M52.0548,-136.5631C58.4186,-127.0175 65.5071,-116.3847 71.3019,-107.6924"/>
<polygon fill="#000000" stroke="#000000" points="49.1071,-134.675 46.4722,-144.937 54.9314,-138.558 49.1071,-134.675"/>
</g>
<!-- 4&#45;&gt;5 -->
<g id="edge5" class="edge">
<title>4&#45;&gt;5</title>
<path fill="none" stroke="#000000" d="M114.5876,-136.2721C108.1617,-126.8299 101.0354,-116.3587 95.1896,-107.7689"/>
<polygon fill="#000000" stroke="#000000" points="111.7156,-138.2729 120.2354,-144.5708 117.5026,-134.3345 111.7156,-138.2729"/>
</g>
<!-- 6 -->
<g id="node6" class="node">
<title>6</title>
<ellipse fill="#d3d3d3" stroke="#000000" cx="83.0969" cy="-18" rx="44.393" ry="18"/>
<text text-anchor="middle" x="83.0969" y="-14.3" font-family="Times,serif" font-size="14.00" fill="#000000">〈 4, 5, 7 〉</text>
</g>
<!-- 5&#45;&gt;6 -->
<g id="edge6" class="edge">
<title>5&#45;&gt;6</title>
<path fill="none" stroke="#000000" d="M83.0969,-61.5726C83.0969,-53.1084 83.0969,-44.0593 83.0969,-36.4133"/>
<polygon fill="#000000" stroke="#000000" points="79.597,-61.8313 83.0969,-71.8314 86.597,-61.8314 79.597,-61.8313"/>
</g>
</g>
</svg>
