<?xml version="1.0" encoding="UTF-8" standalone="no"?>
<!DOCTYPE svg PUBLIC "-//W3C//DTD SVG 1.1//EN"
 "http://www.w3.org/Graphics/SVG/1.1/DTD/svg11.dtd">
<!-- Generated by graphviz version 2.40.1 (20161225.0304)
 -->
<!-- Title: NSGraph Pages: 1 -->
<svg width="708pt" height="332pt"
 viewBox="0.00 0.00 708.19 332.00" xmlns="http://www.w3.org/2000/svg" xmlns:xlink="http://www.w3.org/1999/xlink">
<g id="graph0" class="graph" transform="scale(1 1) rotate(0) translate(4 328)">
<title>NSGraph</title>
<polygon fill="#ffffff" stroke="transparent" points="-4,4 -4,-328 704.1938,-328 704.1938,4 -4,4"/>
<!-- 1 -->
<g id="node1" class="node">
<title>1</title>
<ellipse fill="none" stroke="#000000" cx="362.0969" cy="-306" rx="27" ry="18"/>
<text text-anchor="middle" x="362.0969" y="-302.3" font-family="Times,serif" font-size="14.00" fill="#000000">[ 1 ]</text>
</g>
<!-- 2 -->
<g id="node2" class="node">
<title>2</title>
<ellipse fill="none" stroke="#000000" cx="362.0969" cy="-234" rx="35.194" ry="18"/>
<text text-anchor="middle" x="362.0969" y="-230.3" font-family="Times,serif" font-size="14.00" fill="#000000">[ 2, 3 ]</text>
</g>
<!-- 1&#45;&gt;2 -->
<g id="edge1" class="edge">
<title>1&#45;&gt;2</title>
<path fill="none" stroke="#000000" d="M362.0969,-277.5726C362.0969,-269.1084 362.0969,-260.0593 362.0969,-252.4133"/>
<polygon fill="#000000" stroke="#000000" points="358.597,-277.8313 362.0969,-287.8314 365.597,-277.8314 358.597,-277.8313"/>
</g>
<!-- 3 -->
<g id="node3" class="node">
<title>3</title>
<ellipse fill="none" stroke="#000000" cx="311.0969" cy="-162" rx="35.194" ry="18"/>
<text text-anchor="middle" x="311.0969" y="-158.3" font-family="Times,serif" font-size="14.00" fill="#000000">[ 2, 5 ]</text>
</g>
<!-- 2&#45;&gt;3 -->
<g id="edge2" class="edge">
<title>2&#45;&gt;3</title>
<path fill="none" stroke="#000000" d="M344.1526,-208.6669C337.1762,-198.8178 329.3703,-187.7977 323.0964,-178.9405"/>
<polygon fill="#000000" stroke="#000000" points="341.3743,-210.7998 350.0106,-216.937 347.0865,-206.7537 341.3743,-210.7998"/>
</g>
<!-- 6 -->
<g id="node6" class="node">
<title>6</title>
<ellipse fill="none" stroke="#000000" cx="413.0969" cy="-162" rx="44.393" ry="18"/>
<text text-anchor="middle" x="413.0969" y="-158.3" font-family="Times,serif" font-size="14.00" fill="#000000">[ 3, 4, 5 ]</text>
</g>
<!-- 2&#45;&gt;6 -->
<g id="edge5" class="edge">
<title>2&#45;&gt;6</title>
<path fill="none" stroke="#000000" d="M380.1607,-208.4981C386.9758,-198.8768 394.5674,-188.1593 400.7431,-179.4407"/>
<polygon fill="#000000" stroke="#000000" points="377.1073,-206.7537 374.1832,-216.937 382.8195,-210.7998 377.1073,-206.7537"/>
</g>
<!-- 4 -->
<g id="node4" class="node">
<title>4</title>
<ellipse fill="none" stroke="#000000" cx="142.0969" cy="-90" rx="35.194" ry="18"/>
<text text-anchor="middle" x="142.0969" y="-86.3" font-family="Times,serif" font-size="14.00" fill="#000000">[ 2, 7 ]</text>
</g>
<!-- 3&#45;&gt;4 -->
<g id="edge3" class="edge">
<title>3&#45;&gt;4</title>
<path fill="none" stroke="#000000" d="M274.5755,-146.4406C242.8877,-132.9405 197.7368,-113.7046 169.1823,-101.5393"/>
<polygon fill="#000000" stroke="#000000" points="273.3724,-149.7324 283.9441,-150.432 276.1161,-143.2925 273.3724,-149.7324"/>
</g>
<!-- 11 -->
<g id="node11" class="node">
<title>11</title>
<ellipse fill="none" stroke="#000000" cx="311.0969" cy="-90" rx="53.8905" ry="18"/>
<text text-anchor="middle" x="311.0969" y="-86.3" font-family="Times,serif" font-size="14.00" fill="#000000">[ 4, 5, 6, 7 ]</text>
</g>
<!-- 3&#45;&gt;11 -->
<g id="edge11" class="edge">
<title>3&#45;&gt;11</title>
<path fill="none" stroke="#000000" d="M311.0969,-133.5726C311.0969,-125.1084 311.0969,-116.0593 311.0969,-108.4133"/>
<polygon fill="#000000" stroke="#000000" points="307.597,-133.8313 311.0969,-143.8314 314.597,-133.8314 307.597,-133.8313"/>
</g>
<!-- 5 -->
<g id="node5" class="node">
<title>5</title>
<ellipse fill="none" stroke="#000000" cx="35.0969" cy="-18" rx="35.194" ry="18"/>
<text text-anchor="middle" x="35.0969" y="-14.3" font-family="Times,serif" font-size="14.00" fill="#000000">[ 2, 9 ]</text>
</g>
<!-- 4&#45;&gt;5 -->
<g id="edge4" class="edge">
<title>4&#45;&gt;5</title>
<path fill="none" stroke="#000000" d="M112.3834,-70.0058C94.6281,-58.0584 72.4839,-43.1576 56.4557,-32.3723"/>
<polygon fill="#000000" stroke="#000000" points="110.4504,-72.9238 120.701,-75.6028 114.3584,-67.1162 110.4504,-72.9238"/>
</g>
<!-- 14 -->
<g id="node14" class="node">
<title>14</title>
<ellipse fill="none" stroke="#000000" cx="142.0969" cy="-18" rx="53.8905" ry="18"/>
<text text-anchor="middle" x="142.0969" y="-14.3" font-family="Times,serif" font-size="14.00" fill="#000000">[ 4, 6, 7, 9 ]</text>
</g>
<!-- 4&#45;&gt;14 -->
<g id="edge15" class="edge">
<title>4&#45;&gt;14</title>
<path fill="none" stroke="#000000" d="M142.0969,-61.5726C142.0969,-53.1084 142.0969,-44.0593 142.0969,-36.4133"/>
<polygon fill="#000000" stroke="#000000" points="138.597,-61.8313 142.0969,-71.8314 145.597,-61.8314 138.597,-61.8313"/>
</g>
<!-- 7 -->
<g id="node7" class="node">
<title>7</title>
<ellipse fill="none" stroke="#000000" cx="418.0969" cy="-90" rx="35.194" ry="18"/>
<text text-anchor="middle" x="418.0969" y="-86.3" font-family="Times,serif" font-size="14.00" fill="#000000">[ 3, 4 ]</text>
</g>
<!-- 6&#45;&gt;7 -->
<g id="edge6" class="edge">
<title>6&#45;&gt;7</title>
<path fill="none" stroke="#000000" d="M415.0514,-133.8545C415.6448,-125.3097 416.2813,-116.1442 416.8182,-108.4133"/>
<polygon fill="#000000" stroke="#000000" points="411.5599,-133.6129 414.3586,-143.8314 418.5431,-134.0979 411.5599,-133.6129"/>
</g>
<!-- 8 -->
<g id="node8" class="node">
<title>8</title>
<ellipse fill="none" stroke="#000000" cx="517.0969" cy="-90" rx="44.393" ry="18"/>
<text text-anchor="middle" x="517.0969" y="-86.3" font-family="Times,serif" font-size="14.00" fill="#000000">[ 3, 5, 7 ]</text>
</g>
<!-- 6&#45;&gt;8 -->
<g id="edge7" class="edge">
<title>6&#45;&gt;8</title>
<path fill="none" stroke="#000000" d="M444.2727,-140.4168C460.457,-129.2122 479.8652,-115.7758 494.5745,-105.5924"/>
<polygon fill="#000000" stroke="#000000" points="441.893,-137.8073 435.6633,-146.3771 445.8775,-143.5626 441.893,-137.8073"/>
</g>
<!-- 6&#45;&gt;11 -->
<g id="edge12" class="edge">
<title>6&#45;&gt;11</title>
<path fill="none" stroke="#000000" d="M382.7017,-140.5446C367.1784,-129.587 348.5935,-116.4682 334.2482,-106.3421"/>
<polygon fill="#000000" stroke="#000000" points="380.7763,-143.4696 390.9644,-146.3771 384.8131,-137.7508 380.7763,-143.4696"/>
</g>
<!-- 10 -->
<g id="node10" class="node">
<title>10</title>
<ellipse fill="none" stroke="#000000" cx="568.0969" cy="-18" rx="44.393" ry="18"/>
<text text-anchor="middle" x="568.0969" y="-14.3" font-family="Times,serif" font-size="14.00" fill="#000000">[ 3, 7, 8 ]</text>
</g>
<!-- 7&#45;&gt;10 -->
<g id="edge9" class="edge">
<title>7&#45;&gt;10</title>
<path fill="none" stroke="#000000" d="M453.0872,-73.2046C479.3041,-60.6205 514.7431,-43.6098 539.3231,-31.8114"/>
<polygon fill="#000000" stroke="#000000" points="451.3835,-70.1401 443.8828,-77.6228 454.4126,-76.4507 451.3835,-70.1401"/>
</g>
<!-- 7&#45;&gt;14 -->
<g id="edge16" class="edge">
<title>7&#45;&gt;14</title>
<path fill="none" stroke="#000000" d="M381.9358,-74.6148C379.3019,-73.677 376.67,-72.7934 374.0969,-72 300.7101,-49.3712 279.6168,-54.5596 205.0969,-36 197.8118,-34.1856 190.0957,-32.1104 182.6549,-30.0293"/>
<polygon fill="#000000" stroke="#000000" points="380.7896,-77.9231 391.3813,-78.1843 383.2642,-71.3751 380.7896,-77.9231"/>
</g>
<!-- 9 -->
<g id="node9" class="node">
<title>9</title>
<ellipse fill="none" stroke="#000000" cx="665.0969" cy="-18" rx="35.194" ry="18"/>
<text text-anchor="middle" x="665.0969" y="-14.3" font-family="Times,serif" font-size="14.00" fill="#000000">[ 3, 5 ]</text>
</g>
<!-- 8&#45;&gt;9 -->
<g id="edge8" class="edge">
<title>8&#45;&gt;9</title>
<path fill="none" stroke="#000000" d="M554.6582,-71.7269C581.2537,-58.7886 616.2171,-41.7793 639.6127,-30.3977"/>
<polygon fill="#000000" stroke="#000000" points="553.094,-68.5956 545.6328,-76.1177 556.1563,-74.8903 553.094,-68.5956"/>
</g>
<!-- 8&#45;&gt;10 -->
<g id="edge10" class="edge">
<title>8&#45;&gt;10</title>
<path fill="none" stroke="#000000" d="M535.3667,-64.2074C542.1082,-54.69 549.5846,-44.1349 555.6881,-35.5182"/>
<polygon fill="#000000" stroke="#000000" points="532.3667,-62.3875 529.4426,-72.5708 538.0789,-66.4336 532.3667,-62.3875"/>
</g>
<!-- 15 -->
<g id="node15" class="node">
<title>15</title>
<ellipse fill="none" stroke="#000000" cx="466.0969" cy="-18" rx="40.0939" ry="18"/>
<text text-anchor="middle" x="466.0969" y="-14.3" font-family="Times,serif" font-size="14.00" fill="#000000">[ 5 .. 9 ]</text>
</g>
<!-- 8&#45;&gt;15 -->
<g id="edge18" class="edge">
<title>8&#45;&gt;15</title>
<path fill="none" stroke="#000000" d="M498.7812,-64.1426C491.9864,-54.55 484.4506,-43.9111 478.3289,-35.2687"/>
<polygon fill="#000000" stroke="#000000" points="496.1149,-66.4336 504.7512,-72.5708 501.8271,-62.3875 496.1149,-66.4336"/>
</g>
<!-- 12 -->
<g id="node12" class="node">
<title>12</title>
<ellipse fill="none" stroke="#000000" cx="258.0969" cy="-18" rx="44.393" ry="18"/>
<text text-anchor="middle" x="258.0969" y="-14.3" font-family="Times,serif" font-size="14.00" fill="#000000">[ 4, 5, 6 ]</text>
</g>
<!-- 11&#45;&gt;12 -->
<g id="edge13" class="edge">
<title>11&#45;&gt;12</title>
<path fill="none" stroke="#000000" d="M292.0617,-64.1408C285.0214,-54.5767 277.2158,-43.9728 270.8644,-35.3446"/>
<polygon fill="#000000" stroke="#000000" points="289.2489,-66.2237 297.9958,-72.2022 294.8862,-62.074 289.2489,-66.2237"/>
</g>
<!-- 13 -->
<g id="node13" class="node">
<title>13</title>
<ellipse fill="none" stroke="#000000" cx="364.0969" cy="-18" rx="44.393" ry="18"/>
<text text-anchor="middle" x="364.0969" y="-14.3" font-family="Times,serif" font-size="14.00" fill="#000000">[ 4, 5, 7 ]</text>
</g>
<!-- 11&#45;&gt;13 -->
<g id="edge14" class="edge">
<title>11&#45;&gt;13</title>
<path fill="none" stroke="#000000" d="M330.1321,-64.1408C337.1724,-54.5767 344.978,-43.9728 351.3293,-35.3446"/>
<polygon fill="#000000" stroke="#000000" points="327.3075,-62.074 324.198,-72.2022 332.9449,-66.2237 327.3075,-62.074"/>
</g>
<!-- 11&#45;&gt;14 -->
<g id="edge17" class="edge">
<title>11&#45;&gt;14</title>
<path fill="none" stroke="#000000" d="M268.2933,-71.7641C239.4728,-59.4856 202.0166,-43.5279 175.4165,-32.1953"/>
<polygon fill="#000000" stroke="#000000" points="267.1362,-75.0755 277.7079,-75.7751 269.8799,-68.6356 267.1362,-75.0755"/>
</g>
<!-- 11&#45;&gt;15 -->
<g id="edge19" class="edge">
<title>11&#45;&gt;15</title>
<path fill="none" stroke="#000000" d="M352.0765,-70.9643C379.1946,-58.3675 414.0467,-42.1781 438.0416,-31.0321"/>
<polygon fill="#000000" stroke="#000000" points="350.4323,-67.8688 342.8375,-75.256 353.3813,-74.2174 350.4323,-67.8688"/>
</g>
</g>
</svg>
