<?xml version="1.0" encoding="UTF-8" standalone="no"?>
<!DOCTYPE svg PUBLIC "-//W3C//DTD SVG 1.1//EN"
 "http://www.w3.org/Graphics/SVG/1.1/DTD/svg11.dtd">
<!-- Generated by graphviz version 2.40.1 (20161225.0304)
 -->
<!-- Title: NSGraph Pages: 1 -->
<svg width="708pt" height="332pt"
 viewBox="0.00 0.00 708.39 332.00" xmlns="http://www.w3.org/2000/svg" xmlns:xlink="http://www.w3.org/1999/xlink">
<g id="graph0" class="graph" transform="scale(1 1) rotate(0) translate(4 328)">
<title>NSGraph</title>
<polygon fill="#ffffff" stroke="transparent" points="-4,4 -4,-328 704.3933,-328 704.3933,4 -4,4"/>
<!-- 1 -->
<g id="node1" class="node">
<title>1</title>
<ellipse fill="none" stroke="#000000" cx="127.0969" cy="-306" rx="27" ry="18"/>
<text text-anchor="middle" x="127.0969" y="-302.3" font-family="Times,serif" font-size="14.00" fill="#000000">[ 1 ]</text>
</g>
<!-- 2 -->
<g id="node2" class="node">
<title>2</title>
<ellipse fill="none" stroke="#000000" cx="127.0969" cy="-234" rx="35.194" ry="18"/>
<text text-anchor="middle" x="127.0969" y="-230.3" font-family="Times,serif" font-size="14.00" fill="#000000">[ 2, 3 ]</text>
</g>
<!-- 1&#45;&gt;2 -->
<g id="edge1" class="edge">
<title>1&#45;&gt;2</title>
<path fill="none" stroke="#000000" d="M127.0969,-277.5726C127.0969,-269.1084 127.0969,-260.0593 127.0969,-252.4133"/>
<polygon fill="#000000" stroke="#000000" points="123.597,-277.8313 127.0969,-287.8314 130.597,-277.8314 123.597,-277.8313"/>
</g>
<!-- 3 -->
<g id="node3" class="node">
<title>3</title>
<ellipse fill="none" stroke="#000000" cx="79.0969" cy="-162" rx="35.194" ry="18"/>
<text text-anchor="middle" x="79.0969" y="-158.3" font-family="Times,serif" font-size="14.00" fill="#000000">[ 2, 5 ]</text>
</g>
<!-- 2&#45;&gt;3 -->
<g id="edge2" class="edge">
<title>2&#45;&gt;3</title>
<path fill="none" stroke="#000000" d="M110.0956,-208.4981C103.6815,-198.8768 96.5364,-188.1593 90.724,-179.4407"/>
<polygon fill="#000000" stroke="#000000" points="107.2623,-210.558 115.7216,-216.937 113.0867,-206.675 107.2623,-210.558"/>
</g>
<!-- 6 -->
<g id="node6" class="node">
<title>6</title>
<ellipse fill="none" stroke="#000000" cx="198.0969" cy="-162" rx="44.393" ry="18"/>
<text text-anchor="middle" x="198.0969" y="-158.3" font-family="Times,serif" font-size="14.00" fill="#000000">[ 3, 4, 5 ]</text>
</g>
<!-- 2&#45;&gt;6 -->
<g id="edge5" class="edge">
<title>2&#45;&gt;6</title>
<path fill="none" stroke="#000000" d="M150.3078,-210.4621C160.5121,-200.1141 172.2617,-188.199 181.5569,-178.7729"/>
<polygon fill="#000000" stroke="#000000" points="147.7372,-208.0842 143.2079,-217.6621 152.7215,-212.9992 147.7372,-208.0842"/>
</g>
<!-- 4 -->
<g id="node4" class="node">
<title>4</title>
<ellipse fill="none" stroke="#000000" cx="35.0969" cy="-90" rx="35.194" ry="18"/>
<text text-anchor="middle" x="35.0969" y="-86.3" font-family="Times,serif" font-size="14.00" fill="#000000">[ 2, 7 ]</text>
</g>
<!-- 3&#45;&gt;4 -->
<g id="edge3" class="edge">
<title>3&#45;&gt;4</title>
<path fill="none" stroke="#000000" d="M63.1155,-135.8486C57.3004,-126.3331 50.8776,-115.823 45.65,-107.2687"/>
<polygon fill="#000000" stroke="#000000" points="60.2447,-137.8631 68.4457,-144.5708 66.2177,-134.2129 60.2447,-137.8631"/>
</g>
<!-- 5 -->
<g id="node5" class="node">
<title>5</title>
<ellipse fill="none" stroke="#000000" cx="35.0969" cy="-18" rx="35.194" ry="18"/>
<text text-anchor="middle" x="35.0969" y="-14.3" font-family="Times,serif" font-size="14.00" fill="#000000">[ 2, 9 ]</text>
</g>
<!-- 4&#45;&gt;5 -->
<g id="edge4" class="edge">
<title>4&#45;&gt;5</title>
<path fill="none" stroke="#000000" d="M35.0969,-61.5726C35.0969,-53.1084 35.0969,-44.0593 35.0969,-36.4133"/>
<polygon fill="#000000" stroke="#000000" points="31.597,-61.8313 35.0969,-71.8314 38.597,-61.8314 31.597,-61.8313"/>
</g>
<!-- 7 -->
<g id="node7" class="node">
<title>7</title>
<ellipse fill="none" stroke="#000000" cx="123.0969" cy="-90" rx="35.194" ry="18"/>
<text text-anchor="middle" x="123.0969" y="-86.3" font-family="Times,serif" font-size="14.00" fill="#000000">[ 3, 4 ]</text>
</g>
<!-- 6&#45;&gt;7 -->
<g id="edge6" class="edge">
<title>6&#45;&gt;7</title>
<path fill="none" stroke="#000000" d="M173.4125,-138.303C162.4186,-127.7489 149.7544,-115.5912 139.8817,-106.1134"/>
<polygon fill="#000000" stroke="#000000" points="171.0641,-140.9003 180.7019,-145.3008 175.9118,-135.8506 171.0641,-140.9003"/>
</g>
<!-- 8 -->
<g id="node8" class="node">
<title>8</title>
<ellipse fill="none" stroke="#000000" cx="220.0969" cy="-90" rx="44.393" ry="18"/>
<text text-anchor="middle" x="220.0969" y="-86.3" font-family="Times,serif" font-size="14.00" fill="#000000">[ 3, 5, 7 ]</text>
</g>
<!-- 6&#45;&gt;8 -->
<g id="edge7" class="edge">
<title>6&#45;&gt;8</title>
<path fill="none" stroke="#000000" d="M206.5713,-134.2657C209.2741,-125.42 212.192,-115.8704 214.6233,-107.9134"/>
<polygon fill="#000000" stroke="#000000" points="203.2234,-133.2451 203.6484,-143.8314 209.9179,-135.2906 203.2234,-133.2451"/>
</g>
<!-- 11 -->
<g id="node11" class="node">
<title>11</title>
<ellipse fill="none" stroke="#000000" cx="432.0969" cy="-90" rx="53.8905" ry="18"/>
<text text-anchor="middle" x="432.0969" y="-86.3" font-family="Times,serif" font-size="14.00" fill="#000000">[ 4, 5, 6, 7 ]</text>
</g>
<!-- 6&#45;&gt;11 -->
<g id="edge10" class="edge">
<title>6&#45;&gt;11</title>
<path fill="none" stroke="#000000" d="M243.0595,-148.1653C286.2295,-134.8823 350.8203,-115.0082 392.2062,-102.2741"/>
<polygon fill="#000000" stroke="#000000" points="241.9109,-144.8568 233.3824,-151.1429 243.9695,-151.5472 241.9109,-144.8568"/>
</g>
<!-- 9 -->
<g id="node9" class="node">
<title>9</title>
<ellipse fill="none" stroke="#000000" cx="123.0969" cy="-18" rx="35.194" ry="18"/>
<text text-anchor="middle" x="123.0969" y="-14.3" font-family="Times,serif" font-size="14.00" fill="#000000">[ 3, 5 ]</text>
</g>
<!-- 8&#45;&gt;9 -->
<g id="edge8" class="edge">
<title>8&#45;&gt;9</title>
<path fill="none" stroke="#000000" d="M190.4248,-67.9754C175.1304,-56.6228 156.8789,-43.0753 143.2395,-32.9512"/>
<polygon fill="#000000" stroke="#000000" points="188.4536,-70.871 198.5694,-74.0209 192.6258,-65.2502 188.4536,-70.871"/>
</g>
<!-- 10 -->
<g id="node10" class="node">
<title>10</title>
<ellipse fill="none" stroke="#000000" cx="220.0969" cy="-18" rx="44.393" ry="18"/>
<text text-anchor="middle" x="220.0969" y="-14.3" font-family="Times,serif" font-size="14.00" fill="#000000">[ 3, 7, 8 ]</text>
</g>
<!-- 8&#45;&gt;10 -->
<g id="edge9" class="edge">
<title>8&#45;&gt;10</title>
<path fill="none" stroke="#000000" d="M220.0969,-61.5726C220.0969,-53.1084 220.0969,-44.0593 220.0969,-36.4133"/>
<polygon fill="#000000" stroke="#000000" points="216.597,-61.8313 220.0969,-71.8314 223.597,-61.8314 216.597,-61.8313"/>
</g>
<!-- 12 -->
<g id="node12" class="node">
<title>12</title>
<ellipse fill="none" stroke="#000000" cx="326.0969" cy="-18" rx="44.393" ry="18"/>
<text text-anchor="middle" x="326.0969" y="-14.3" font-family="Times,serif" font-size="14.00" fill="#000000">[ 4, 5, 6 ]</text>
</g>
<!-- 11&#45;&gt;12 -->
<g id="edge11" class="edge">
<title>11&#45;&gt;12</title>
<path fill="none" stroke="#000000" d="M399.5968,-67.9244C383.2586,-56.8268 363.8479,-43.6422 349.0779,-33.6098"/>
<polygon fill="#000000" stroke="#000000" points="398.0696,-71.1182 408.3084,-73.8418 402.0028,-65.3277 398.0696,-71.1182"/>
</g>
<!-- 13 -->
<g id="node13" class="node">
<title>13</title>
<ellipse fill="none" stroke="#000000" cx="432.0969" cy="-18" rx="44.393" ry="18"/>
<text text-anchor="middle" x="432.0969" y="-14.3" font-family="Times,serif" font-size="14.00" fill="#000000">[ 4, 5, 7 ]</text>
</g>
<!-- 11&#45;&gt;13 -->
<g id="edge12" class="edge">
<title>11&#45;&gt;13</title>
<path fill="none" stroke="#000000" d="M432.0969,-61.5726C432.0969,-53.1084 432.0969,-44.0593 432.0969,-36.4133"/>
<polygon fill="#000000" stroke="#000000" points="428.597,-61.8313 432.0969,-71.8314 435.597,-61.8314 428.597,-61.8313"/>
</g>
<!-- 14 -->
<g id="node14" class="node">
<title>14</title>
<ellipse fill="none" stroke="#000000" cx="548.0969" cy="-18" rx="53.8905" ry="18"/>
<text text-anchor="middle" x="548.0969" y="-14.3" font-family="Times,serif" font-size="14.00" fill="#000000">[ 4, 6, 7, 9 ]</text>
</g>
<!-- 11&#45;&gt;14 -->
<g id="edge13" class="edge">
<title>11&#45;&gt;14</title>
<path fill="none" stroke="#000000" d="M466.8141,-68.4514C484.6758,-57.3648 506.0697,-44.0858 522.4247,-33.9345"/>
<polygon fill="#000000" stroke="#000000" points="464.4917,-65.7734 457.841,-74.0209 468.1832,-71.7209 464.4917,-65.7734"/>
</g>
<!-- 15 -->
<g id="node15" class="node">
<title>15</title>
<ellipse fill="none" stroke="#000000" cx="660.0969" cy="-18" rx="40.0939" ry="18"/>
<text text-anchor="middle" x="660.0969" y="-14.3" font-family="Times,serif" font-size="14.00" fill="#000000">[ 5 .. 9 ]</text>
</g>
<!-- 11&#45;&gt;15 -->
<g id="edge14" class="edge">
<title>11&#45;&gt;15</title>
<path fill="none" stroke="#000000" d="M483.3214,-75.4191C519.254,-64.9786 568.3235,-50.2943 611.0969,-36 616.9418,-34.0467 623.1389,-31.8611 629.0887,-29.7044"/>
<polygon fill="#000000" stroke="#000000" points="482.1834,-72.1048 473.5511,-78.2475 484.1299,-78.8287 482.1834,-72.1048"/>
</g>
</g>
</svg>
